<?xml version="1.0" encoding="UTF-8" standalone="no"?>
<svg
   xmlns:dc="http://purl.org/dc/elements/1.1/"
   xmlns:cc="http://creativecommons.org/ns#"
   xmlns:rdf="http://www.w3.org/1999/02/22-rdf-syntax-ns#"
   xmlns:svg="http://www.w3.org/2000/svg"
   xmlns="http://www.w3.org/2000/svg"
   xmlns:sodipodi="http://sodipodi.sourceforge.net/DTD/sodipodi-0.dtd"
   xmlns:inkscape="http://www.inkscape.org/namespaces/inkscape"
   sodipodi:docname="qview.svg"
   inkscape:version="1.0 (4035a4fb49, 2020-05-01)"
   id="svg8"
   version="1.1"
   viewBox="0 0 71.177544 57.60886"
   height="57.60886mm"
   width="71.177544mm">
  <defs
     id="defs2" />
  <sodipodi:namedview
     inkscape:window-maximized="0"
     inkscape:window-y="0"
     inkscape:window-x="175"
     inkscape:window-height="1040"
     inkscape:window-width="1570"
     fit-margin-bottom="0"
     fit-margin-right="0"
     fit-margin-left="0"
     fit-margin-top="0"
     showgrid="false"
     inkscape:document-rotation="0"
     inkscape:current-layer="layer1"
     inkscape:document-units="mm"
     inkscape:cy="412.61097"
     inkscape:cx="22.556224"
     inkscape:zoom="0.98994949"
     inkscape:pageshadow="2"
     inkscape:pageopacity="0.0"
     borderopacity="1.0"
     bordercolor="#666666"
     pagecolor="#ffffff"
     id="base" />
  <metadata
     id="metadata5">
    <rdf:RDF>
      <cc:Work
         rdf:about="">
        <dc:format>image/svg+xml</dc:format>
        <dc:type
           rdf:resource="http://purl.org/dc/dcmitype/StillImage" />
        <dc:title></dc:title>
      </cc:Work>
    </rdf:RDF>
  </metadata>
  <g
     transform="translate(-1.8608536,-1.6518171)"
     id="layer1"
     inkscape:groupmode="layer"
     inkscape:label="Warstwa 1">
    <g
       transform="translate(-18.976136,-49.444863)"
       id="g74">
      <g
         aria-label="Q"
         transform="matrix(2.1278588,0,0,0.85822454,-48.802854,-26.916939)"
         id="text12"
         style="font-style:normal;font-variant:normal;font-weight:normal;font-stretch:normal;font-size:75.0007px;line-height:1.25;font-family:'JetBrains Mono';-inkscape-font-specification:'JetBrains Mono';fill:#808080;fill-opacity:1;stroke:none;stroke-width:1.87502">
        <path
           d="m 32.727662,107.02633 q 0,-3.67504 1.125011,-6.67507 1.200011,-3.000024 3.30003,-5.100044 2.175021,-2.10002 5.175049,-3.22503 3.075029,-1.125011 6.900064,-1.125011 3.825036,0 6.825064,1.125011 3.075029,1.12501 5.175049,3.22503 2.17502,2.10002 3.300031,5.100044 1.200011,3.00003 1.200011,6.67507 v 23.25021 q 0,5.10005 -2.175021,8.85009 -2.17502,3.67503 -6.150057,5.55005 l 8.775082,13.35012 H 58.377902 L 50.65283,146.32669 q -0.375004,0.075 -0.750007,0.075 -0.300003,0 -0.675007,0 -3.825035,0 -6.900064,-1.12501 -3.000028,-1.12501 -5.175049,-3.22503 -2.100019,-2.10002 -3.30003,-5.10004 -1.125011,-3.00003 -1.125011,-6.67507 z m 6.750063,23.25021 q 0,4.65005 2.625025,7.42507 2.625024,2.70003 7.125066,2.70003 4.500043,0 7.125067,-2.70003 2.625025,-2.77502 2.625025,-7.42507 v -23.25021 q 0,-4.65005 -2.625025,-7.350073 -2.625024,-2.775026 -7.125067,-2.775026 -4.500042,0 -7.125066,2.775026 -2.625025,2.700023 -2.625025,7.350073 z"
           style="font-style:normal;font-variant:normal;font-weight:normal;font-stretch:normal;font-family:'JetBrains Mono';-inkscape-font-specification:'JetBrains Mono';fill:#808080;stroke-width:1.87502"
           id="path14" />
      </g>
      <rect
         style="fill:#999999;stroke-width:0.264583"
         id="rect39"
         width="10.961308"
         height="10.961308"
         x="41.388393"
         y="61.610119" />
      <rect
         y="61.742413"
         x="59.058781"
         height="10.961308"
         width="10.961308"
         id="rect39-4"
         style="fill:#999999;stroke-width:0.264583" />
      <rect
         y="78.335564"
         x="41.199406"
         height="10.961308"
         width="10.961308"
         id="rect39-2"
         style="fill:#999999;stroke-width:0.264583" />
      <rect
         y="78.241074"
         x="58.964287"
         height="10.961308"
         width="10.961308"
         id="rect39-5"
         style="fill:#999999;stroke-width:0.264583" />
    </g>
  </g>
</svg>
